<mxfile host="app.diagrams.net" agent="Mozilla/5.0 (Windows NT 10.0; Win64; x64; rv:133.0) Gecko/20100101 Firefox/133.0" version="25.0.3">
  <diagram name="Seite-1" id="GdJKFYjglcCsdlnulnRX">
    <mxGraphModel dx="3413" dy="1394" grid="1" gridSize="10" guides="1" tooltips="1" connect="1" arrows="1" fold="1" page="1" pageScale="1" pageWidth="827" pageHeight="1169" math="0" shadow="0">
      <root>
        <mxCell id="0" />
        <mxCell id="1" parent="0" />
        <object label="default" btelligentShapeType="Satellite" btelligentLibrary="ELM" id="tnuW1UExQAtQYmTLPYoE-152">
          <mxCell style="group;verticalAlign=middle;align=left;spacingLeft=39;fillColor=#fff2cc;strokeColor=none;connectable=1;" parent="1" vertex="1" connectable="0">
            <mxGeometry x="-680" y="120" width="160" height="60" as="geometry" />
          </mxCell>
        </object>
        <object label="" ELM="Satellite" id="tnuW1UExQAtQYmTLPYoE-153">
          <mxCell style="shape=delay;whiteSpace=wrap;html=1;rotation=-180;fillColor=none;strokeColor=#d6b656;backgroundOutline=0;connectable=0;noLabel=1;fillOpacity=100;strokeWidth=2;editable=0;" parent="tnuW1UExQAtQYmTLPYoE-152" vertex="1">
            <mxGeometry width="160" height="60" as="geometry" />
          </mxCell>
        </object>
        <mxCell id="tnuW1UExQAtQYmTLPYoE-154" value="" style="group;rotation=-45;movable=0;resizable=0;rotatable=0;deletable=0;editable=0;locked=1;connectable=0;" parent="tnuW1UExQAtQYmTLPYoE-152" vertex="1" connectable="0">
          <mxGeometry x="4" y="22" width="36" height="16" as="geometry" />
        </mxCell>
        <mxCell id="tnuW1UExQAtQYmTLPYoE-155" value="" style="rounded=0;whiteSpace=wrap;html=1;strokeColor=none;fillColor=#000000;rotation=-45;movable=0;resizable=0;rotatable=0;deletable=0;editable=0;locked=1;connectable=0;" parent="tnuW1UExQAtQYmTLPYoE-154" vertex="1">
          <mxGeometry x="13" y="1" width="6" height="10" as="geometry" />
        </mxCell>
        <mxCell id="tnuW1UExQAtQYmTLPYoE-156" value="" style="rounded=0;whiteSpace=wrap;html=1;strokeColor=none;fillColor=#000000;rotation=-45;movable=0;resizable=0;rotatable=0;deletable=0;editable=0;locked=1;connectable=0;" parent="tnuW1UExQAtQYmTLPYoE-154" vertex="1">
          <mxGeometry x="17" y="-5" width="14" height="6" as="geometry" />
        </mxCell>
        <mxCell id="tnuW1UExQAtQYmTLPYoE-157" value="" style="rounded=0;whiteSpace=wrap;html=1;strokeColor=none;fillColor=#000000;rotation=-45;movable=0;resizable=0;rotatable=0;deletable=0;editable=0;locked=1;connectable=0;" parent="tnuW1UExQAtQYmTLPYoE-154" vertex="1">
          <mxGeometry x="1" y="11" width="14" height="6" as="geometry" />
        </mxCell>
        <mxCell id="tnuW1UExQAtQYmTLPYoE-158" value="" style="triangle;whiteSpace=wrap;html=1;strokeColor=none;fillColor=#000000;rotation=-135;movable=0;resizable=0;rotatable=0;deletable=0;editable=0;locked=1;connectable=0;" parent="tnuW1UExQAtQYmTLPYoE-154" vertex="1">
          <mxGeometry x="16" width="6" height="18" as="geometry" />
        </mxCell>
        <mxCell id="tnuW1UExQAtQYmTLPYoE-159" value="" style="rounded=0;whiteSpace=wrap;html=1;strokeColor=none;fillColor=#000000;rotation=-45;movable=0;resizable=0;rotatable=0;deletable=0;editable=0;locked=1;connectable=0;" parent="tnuW1UExQAtQYmTLPYoE-154" vertex="1">
          <mxGeometry x="20" y="8" width="2" height="7" as="geometry" />
        </mxCell>
        <object label="Location" btelligentShapeType="Hub" btelligentLibrary="ELM" id="tnuW1UExQAtQYmTLPYoE-160">
          <mxCell style="group;verticalAlign=middle;align=left;spacingLeft=39;fillColor=#dae8fc;strokeColor=#6c8ebf;connectable=1;" parent="1" vertex="1" connectable="0">
            <mxGeometry x="-480" y="120" width="160" height="60" as="geometry" />
          </mxCell>
        </object>
        <object label="" ELM="Hub" id="tnuW1UExQAtQYmTLPYoE-161">
          <mxCell style="rounded=0;whiteSpace=wrap;html=1;fillColor=none;strokeColor=#6c8ebf;strokeWidth=2;connectable=0;noLabel=1;editable=0;" parent="tnuW1UExQAtQYmTLPYoE-160" vertex="1">
            <mxGeometry width="160" height="60" as="geometry" />
          </mxCell>
        </object>
        <mxCell id="tnuW1UExQAtQYmTLPYoE-162" value="" style="group;movable=0;resizable=0;rotatable=0;deletable=0;editable=0;locked=1;connectable=0;" parent="tnuW1UExQAtQYmTLPYoE-160" vertex="1" connectable="0">
          <mxGeometry x="5" y="15" width="30" height="30" as="geometry" />
        </mxCell>
        <mxCell id="tnuW1UExQAtQYmTLPYoE-163" value="" style="verticalLabelPosition=bottom;verticalAlign=top;html=1;shape=mxgraph.flowchart.on-page_reference;strokeColor=none;fillColor=#000000;movable=0;resizable=0;rotatable=0;deletable=0;editable=0;locked=1;connectable=0;" parent="tnuW1UExQAtQYmTLPYoE-162" vertex="1">
          <mxGeometry width="30" height="30" as="geometry" />
        </mxCell>
        <mxCell id="tnuW1UExQAtQYmTLPYoE-164" value="" style="verticalLabelPosition=bottom;verticalAlign=top;html=1;shape=mxgraph.flowchart.on-page_reference;strokeColor=none;fillColor=#FFFFFF;movable=0;resizable=0;rotatable=0;deletable=0;editable=0;locked=1;connectable=0;" parent="tnuW1UExQAtQYmTLPYoE-162" vertex="1">
          <mxGeometry x="10" y="10" width="10" height="10" as="geometry" />
        </mxCell>
        <mxCell id="tnuW1UExQAtQYmTLPYoE-165" value="" style="triangle;whiteSpace=wrap;html=1;strokeColor=none;rounded=0;movable=0;resizable=0;rotatable=0;deletable=0;editable=0;locked=1;connectable=0;" parent="tnuW1UExQAtQYmTLPYoE-162" vertex="1">
          <mxGeometry x="22" y="10" width="6" height="10" as="geometry" />
        </mxCell>
        <mxCell id="tnuW1UExQAtQYmTLPYoE-166" value="" style="triangle;whiteSpace=wrap;html=1;rounded=0;rotation=-180;strokeColor=none;movable=0;resizable=0;rotatable=0;deletable=0;editable=0;locked=1;connectable=0;" parent="tnuW1UExQAtQYmTLPYoE-162" vertex="1">
          <mxGeometry x="2" y="10" width="6" height="10" as="geometry" />
        </mxCell>
        <mxCell id="tnuW1UExQAtQYmTLPYoE-167" value="" style="triangle;whiteSpace=wrap;html=1;rounded=0;rotation=90;strokeColor=none;movable=0;resizable=0;rotatable=0;deletable=0;editable=0;locked=1;connectable=0;" parent="tnuW1UExQAtQYmTLPYoE-162" vertex="1">
          <mxGeometry x="12" y="20" width="6" height="10" as="geometry" />
        </mxCell>
        <mxCell id="tnuW1UExQAtQYmTLPYoE-168" value="" style="triangle;whiteSpace=wrap;html=1;rounded=0;rotation=-90;strokeColor=none;movable=0;resizable=0;rotatable=0;deletable=0;editable=0;locked=1;connectable=0;" parent="tnuW1UExQAtQYmTLPYoE-162" vertex="1">
          <mxGeometry x="12" width="6" height="10" as="geometry" />
        </mxCell>
        <UserObject label="" btelligentShapeType="Sat-to-Hub" btelligentLibrary="ELM" id="tnuW1UExQAtQYmTLPYoE-169">
          <mxCell style="vsdxID=5;startArrow=none;endArrow=block;startSize=10;endSize=10;strokeColor=#4D4D4D;spacingTop=2;spacingBottom=2;spacingLeft=2;spacingRight=2;verticalAlign=middle;html=1;labelBackgroundColor=#FFFFFF;rounded=1;jumpStyle=arc;startFill=0;endFill=1;fontStyle=2;labelBorderColor=none;edgeStyle=orthogonalEdgeStyle;strokeWidth=2;" parent="1" source="tnuW1UExQAtQYmTLPYoE-152" target="tnuW1UExQAtQYmTLPYoE-160" edge="1">
            <mxGeometry relative="1" as="geometry">
              <mxPoint x="-270" y="80" as="sourcePoint" />
              <mxPoint x="-230" y="80" as="targetPoint" />
              <mxPoint as="offset" />
            </mxGeometry>
          </mxCell>
        </UserObject>
        <object label="default" btelligentShapeType="Satellite" btelligentLibrary="ELM" id="tnuW1UExQAtQYmTLPYoE-170">
          <mxCell style="group;verticalAlign=middle;align=left;spacingLeft=39;fillColor=#fff2cc;strokeColor=none;connectable=1;" parent="1" vertex="1" connectable="0">
            <mxGeometry x="200" y="120" width="160" height="60" as="geometry" />
          </mxCell>
        </object>
        <object label="" ELM="Satellite" id="tnuW1UExQAtQYmTLPYoE-171">
          <mxCell style="shape=delay;whiteSpace=wrap;html=1;rotation=-180;fillColor=none;strokeColor=#d6b656;backgroundOutline=0;connectable=0;noLabel=1;fillOpacity=100;strokeWidth=2;editable=0;" parent="tnuW1UExQAtQYmTLPYoE-170" vertex="1">
            <mxGeometry width="160" height="60" as="geometry" />
          </mxCell>
        </object>
        <mxCell id="tnuW1UExQAtQYmTLPYoE-172" value="" style="group;rotation=-45;movable=0;resizable=0;rotatable=0;deletable=0;editable=0;locked=1;connectable=0;" parent="tnuW1UExQAtQYmTLPYoE-170" vertex="1" connectable="0">
          <mxGeometry x="4" y="22" width="36" height="16" as="geometry" />
        </mxCell>
        <mxCell id="tnuW1UExQAtQYmTLPYoE-173" value="" style="rounded=0;whiteSpace=wrap;html=1;strokeColor=none;fillColor=#000000;rotation=-45;movable=0;resizable=0;rotatable=0;deletable=0;editable=0;locked=1;connectable=0;" parent="tnuW1UExQAtQYmTLPYoE-172" vertex="1">
          <mxGeometry x="13" y="1" width="6" height="10" as="geometry" />
        </mxCell>
        <mxCell id="tnuW1UExQAtQYmTLPYoE-174" value="" style="rounded=0;whiteSpace=wrap;html=1;strokeColor=none;fillColor=#000000;rotation=-45;movable=0;resizable=0;rotatable=0;deletable=0;editable=0;locked=1;connectable=0;" parent="tnuW1UExQAtQYmTLPYoE-172" vertex="1">
          <mxGeometry x="17" y="-5" width="14" height="6" as="geometry" />
        </mxCell>
        <mxCell id="tnuW1UExQAtQYmTLPYoE-175" value="" style="rounded=0;whiteSpace=wrap;html=1;strokeColor=none;fillColor=#000000;rotation=-45;movable=0;resizable=0;rotatable=0;deletable=0;editable=0;locked=1;connectable=0;" parent="tnuW1UExQAtQYmTLPYoE-172" vertex="1">
          <mxGeometry x="1" y="11" width="14" height="6" as="geometry" />
        </mxCell>
        <mxCell id="tnuW1UExQAtQYmTLPYoE-176" value="" style="triangle;whiteSpace=wrap;html=1;strokeColor=none;fillColor=#000000;rotation=-135;movable=0;resizable=0;rotatable=0;deletable=0;editable=0;locked=1;connectable=0;" parent="tnuW1UExQAtQYmTLPYoE-172" vertex="1">
          <mxGeometry x="16" width="6" height="18" as="geometry" />
        </mxCell>
        <mxCell id="tnuW1UExQAtQYmTLPYoE-177" value="" style="rounded=0;whiteSpace=wrap;html=1;strokeColor=none;fillColor=#000000;rotation=-45;movable=0;resizable=0;rotatable=0;deletable=0;editable=0;locked=1;connectable=0;" parent="tnuW1UExQAtQYmTLPYoE-172" vertex="1">
          <mxGeometry x="20" y="8" width="2" height="7" as="geometry" />
        </mxCell>
        <object label="Client" btelligentShapeType="Hub" btelligentLibrary="ELM" id="tnuW1UExQAtQYmTLPYoE-178">
          <mxCell style="group;verticalAlign=middle;align=left;spacingLeft=39;fillColor=#dae8fc;strokeColor=#6c8ebf;connectable=1;" parent="1" vertex="1" connectable="0">
            <mxGeometry y="120" width="160" height="60" as="geometry" />
          </mxCell>
        </object>
        <object label="" ELM="Hub" id="tnuW1UExQAtQYmTLPYoE-179">
          <mxCell style="rounded=0;whiteSpace=wrap;html=1;fillColor=none;strokeColor=#6c8ebf;strokeWidth=2;connectable=0;noLabel=1;editable=0;" parent="tnuW1UExQAtQYmTLPYoE-178" vertex="1">
            <mxGeometry width="160" height="60" as="geometry" />
          </mxCell>
        </object>
        <mxCell id="tnuW1UExQAtQYmTLPYoE-180" value="" style="group;movable=0;resizable=0;rotatable=0;deletable=0;editable=0;locked=1;connectable=0;" parent="tnuW1UExQAtQYmTLPYoE-178" vertex="1" connectable="0">
          <mxGeometry x="5" y="15" width="30" height="30" as="geometry" />
        </mxCell>
        <mxCell id="tnuW1UExQAtQYmTLPYoE-181" value="" style="verticalLabelPosition=bottom;verticalAlign=top;html=1;shape=mxgraph.flowchart.on-page_reference;strokeColor=none;fillColor=#000000;movable=0;resizable=0;rotatable=0;deletable=0;editable=0;locked=1;connectable=0;" parent="tnuW1UExQAtQYmTLPYoE-180" vertex="1">
          <mxGeometry width="30" height="30" as="geometry" />
        </mxCell>
        <mxCell id="tnuW1UExQAtQYmTLPYoE-182" value="" style="verticalLabelPosition=bottom;verticalAlign=top;html=1;shape=mxgraph.flowchart.on-page_reference;strokeColor=none;fillColor=#FFFFFF;movable=0;resizable=0;rotatable=0;deletable=0;editable=0;locked=1;connectable=0;" parent="tnuW1UExQAtQYmTLPYoE-180" vertex="1">
          <mxGeometry x="10" y="10" width="10" height="10" as="geometry" />
        </mxCell>
        <mxCell id="tnuW1UExQAtQYmTLPYoE-183" value="" style="triangle;whiteSpace=wrap;html=1;strokeColor=none;rounded=0;movable=0;resizable=0;rotatable=0;deletable=0;editable=0;locked=1;connectable=0;" parent="tnuW1UExQAtQYmTLPYoE-180" vertex="1">
          <mxGeometry x="22" y="10" width="6" height="10" as="geometry" />
        </mxCell>
        <mxCell id="tnuW1UExQAtQYmTLPYoE-184" value="" style="triangle;whiteSpace=wrap;html=1;rounded=0;rotation=-180;strokeColor=none;movable=0;resizable=0;rotatable=0;deletable=0;editable=0;locked=1;connectable=0;" parent="tnuW1UExQAtQYmTLPYoE-180" vertex="1">
          <mxGeometry x="2" y="10" width="6" height="10" as="geometry" />
        </mxCell>
        <mxCell id="tnuW1UExQAtQYmTLPYoE-185" value="" style="triangle;whiteSpace=wrap;html=1;rounded=0;rotation=90;strokeColor=none;movable=0;resizable=0;rotatable=0;deletable=0;editable=0;locked=1;connectable=0;" parent="tnuW1UExQAtQYmTLPYoE-180" vertex="1">
          <mxGeometry x="12" y="20" width="6" height="10" as="geometry" />
        </mxCell>
        <mxCell id="tnuW1UExQAtQYmTLPYoE-186" value="" style="triangle;whiteSpace=wrap;html=1;rounded=0;rotation=-90;strokeColor=none;movable=0;resizable=0;rotatable=0;deletable=0;editable=0;locked=1;connectable=0;" parent="tnuW1UExQAtQYmTLPYoE-180" vertex="1">
          <mxGeometry x="12" width="6" height="10" as="geometry" />
        </mxCell>
        <UserObject label="" btelligentShapeType="Sat-to-Hub" btelligentLibrary="ELM" id="tnuW1UExQAtQYmTLPYoE-187">
          <mxCell style="vsdxID=5;startArrow=none;endArrow=block;startSize=10;endSize=10;strokeColor=#4D4D4D;spacingTop=2;spacingBottom=2;spacingLeft=2;spacingRight=2;verticalAlign=middle;html=1;labelBackgroundColor=#FFFFFF;rounded=1;jumpStyle=arc;startFill=0;endFill=1;fontStyle=2;labelBorderColor=none;edgeStyle=orthogonalEdgeStyle;strokeWidth=2;" parent="1" source="tnuW1UExQAtQYmTLPYoE-170" target="tnuW1UExQAtQYmTLPYoE-178" edge="1">
            <mxGeometry relative="1" as="geometry">
              <mxPoint x="210" y="80" as="sourcePoint" />
              <mxPoint x="250" y="80" as="targetPoint" />
              <mxPoint as="offset" />
            </mxGeometry>
          </mxCell>
        </UserObject>
        <object label="Link" btelligentShapeType="Link" btelligentLibrary="ELM" id="tnuW1UExQAtQYmTLPYoE-188">
          <mxCell style="group;verticalAlign=middle;align=left;spacingLeft=39;fillColor=#f8cecc;strokeColor=none;connectable=1;" parent="1" vertex="1" connectable="0">
            <mxGeometry x="-240" y="120" width="160" height="60" as="geometry" />
          </mxCell>
        </object>
        <object label="" ELM="Link" id="tnuW1UExQAtQYmTLPYoE-189">
          <mxCell style="rounded=1;whiteSpace=wrap;html=1;fillColor=none;strokeColor=#b85450;strokeWidth=2;arcSize=24;noLabel=1;connectable=0;editable=0;" parent="tnuW1UExQAtQYmTLPYoE-188" vertex="1">
            <mxGeometry width="160" height="60" as="geometry" />
          </mxCell>
        </object>
        <mxCell id="tnuW1UExQAtQYmTLPYoE-190" value="" style="group;rotation=60;movable=0;resizable=0;rotatable=0;deletable=0;editable=0;locked=1;connectable=0;" parent="tnuW1UExQAtQYmTLPYoE-188" vertex="1" connectable="0">
          <mxGeometry y="25" width="38" height="10" as="geometry" />
        </mxCell>
        <mxCell id="tnuW1UExQAtQYmTLPYoE-191" value="" style="strokeWidth=2;html=1;shape=mxgraph.flowchart.terminator;whiteSpace=wrap;rotation=60;movable=0;resizable=0;rotatable=0;deletable=0;editable=0;locked=1;connectable=0;" parent="tnuW1UExQAtQYmTLPYoE-190" vertex="1">
          <mxGeometry x="6" y="-10" width="16" height="10" as="geometry" />
        </mxCell>
        <mxCell id="tnuW1UExQAtQYmTLPYoE-192" value="" style="strokeWidth=2;html=1;shape=mxgraph.flowchart.terminator;whiteSpace=wrap;rotation=60;movable=0;resizable=0;rotatable=0;deletable=0;editable=0;locked=1;connectable=0;" parent="tnuW1UExQAtQYmTLPYoE-190" vertex="1">
          <mxGeometry x="17" y="10" width="16" height="10" as="geometry" />
        </mxCell>
        <mxCell id="tnuW1UExQAtQYmTLPYoE-193" value="" style="verticalLabelPosition=bottom;verticalAlign=top;html=1;shape=mxgraph.basic.rect;fillColor2=none;strokeWidth=1;size=20;indent=5;fillColor=#FFFFFF;strokeColor=none;rotation=60;movable=0;resizable=0;rotatable=0;deletable=0;editable=0;locked=1;connectable=0;" parent="tnuW1UExQAtQYmTLPYoE-190" vertex="1">
          <mxGeometry x="9" y="2" width="20" height="6" as="geometry" />
        </mxCell>
        <mxCell id="tnuW1UExQAtQYmTLPYoE-194" value="" style="strokeWidth=3;html=1;shape=mxgraph.flowchart.terminator;whiteSpace=wrap;rotation=60;movable=0;resizable=0;rotatable=0;deletable=0;editable=0;locked=1;connectable=0;" parent="tnuW1UExQAtQYmTLPYoE-190" vertex="1">
          <mxGeometry x="11" y="4" width="16" height="2" as="geometry" />
        </mxCell>
        <object label="default" btelligentShapeType="Satellite" btelligentLibrary="ELM" id="tnuW1UExQAtQYmTLPYoE-195">
          <mxCell style="group;verticalAlign=middle;align=left;spacingLeft=39;fillColor=#fff2cc;strokeColor=none;connectable=1;" parent="1" vertex="1" connectable="0">
            <mxGeometry x="-40" y="280" width="160" height="60" as="geometry" />
          </mxCell>
        </object>
        <object label="" ELM="Satellite" id="tnuW1UExQAtQYmTLPYoE-196">
          <mxCell style="shape=delay;whiteSpace=wrap;html=1;rotation=-180;fillColor=none;strokeColor=#d6b656;backgroundOutline=0;connectable=0;noLabel=1;fillOpacity=100;strokeWidth=2;editable=0;" parent="tnuW1UExQAtQYmTLPYoE-195" vertex="1">
            <mxGeometry width="160" height="60" as="geometry" />
          </mxCell>
        </object>
        <mxCell id="tnuW1UExQAtQYmTLPYoE-197" value="" style="group;rotation=-45;movable=0;resizable=0;rotatable=0;deletable=0;editable=0;locked=1;connectable=0;" parent="tnuW1UExQAtQYmTLPYoE-195" vertex="1" connectable="0">
          <mxGeometry x="4" y="22" width="36" height="16" as="geometry" />
        </mxCell>
        <mxCell id="tnuW1UExQAtQYmTLPYoE-198" value="" style="rounded=0;whiteSpace=wrap;html=1;strokeColor=none;fillColor=#000000;rotation=-45;movable=0;resizable=0;rotatable=0;deletable=0;editable=0;locked=1;connectable=0;" parent="tnuW1UExQAtQYmTLPYoE-197" vertex="1">
          <mxGeometry x="13" y="1" width="6" height="10" as="geometry" />
        </mxCell>
        <mxCell id="tnuW1UExQAtQYmTLPYoE-199" value="" style="rounded=0;whiteSpace=wrap;html=1;strokeColor=none;fillColor=#000000;rotation=-45;movable=0;resizable=0;rotatable=0;deletable=0;editable=0;locked=1;connectable=0;" parent="tnuW1UExQAtQYmTLPYoE-197" vertex="1">
          <mxGeometry x="17" y="-5" width="14" height="6" as="geometry" />
        </mxCell>
        <mxCell id="tnuW1UExQAtQYmTLPYoE-200" value="" style="rounded=0;whiteSpace=wrap;html=1;strokeColor=none;fillColor=#000000;rotation=-45;movable=0;resizable=0;rotatable=0;deletable=0;editable=0;locked=1;connectable=0;" parent="tnuW1UExQAtQYmTLPYoE-197" vertex="1">
          <mxGeometry x="1" y="11" width="14" height="6" as="geometry" />
        </mxCell>
        <mxCell id="tnuW1UExQAtQYmTLPYoE-201" value="" style="triangle;whiteSpace=wrap;html=1;strokeColor=none;fillColor=#000000;rotation=-135;movable=0;resizable=0;rotatable=0;deletable=0;editable=0;locked=1;connectable=0;" parent="tnuW1UExQAtQYmTLPYoE-197" vertex="1">
          <mxGeometry x="16" width="6" height="18" as="geometry" />
        </mxCell>
        <mxCell id="tnuW1UExQAtQYmTLPYoE-202" value="" style="rounded=0;whiteSpace=wrap;html=1;strokeColor=none;fillColor=#000000;rotation=-45;movable=0;resizable=0;rotatable=0;deletable=0;editable=0;locked=1;connectable=0;" parent="tnuW1UExQAtQYmTLPYoE-197" vertex="1">
          <mxGeometry x="20" y="8" width="2" height="7" as="geometry" />
        </mxCell>
        <object label="Advice" btelligentShapeType="Hub" btelligentLibrary="ELM" id="tnuW1UExQAtQYmTLPYoE-203">
          <mxCell style="group;verticalAlign=middle;align=left;spacingLeft=39;fillColor=#dae8fc;strokeColor=#6c8ebf;connectable=1;" parent="1" vertex="1" connectable="0">
            <mxGeometry x="-240" y="280" width="160" height="60" as="geometry" />
          </mxCell>
        </object>
        <object label="" ELM="Hub" id="tnuW1UExQAtQYmTLPYoE-204">
          <mxCell style="rounded=0;whiteSpace=wrap;html=1;fillColor=none;strokeColor=#6c8ebf;strokeWidth=2;connectable=0;noLabel=1;editable=0;" parent="tnuW1UExQAtQYmTLPYoE-203" vertex="1">
            <mxGeometry width="160" height="60" as="geometry" />
          </mxCell>
        </object>
        <mxCell id="tnuW1UExQAtQYmTLPYoE-205" value="" style="group;movable=0;resizable=0;rotatable=0;deletable=0;editable=0;locked=1;connectable=0;" parent="tnuW1UExQAtQYmTLPYoE-203" vertex="1" connectable="0">
          <mxGeometry x="5" y="15" width="30" height="30" as="geometry" />
        </mxCell>
        <mxCell id="tnuW1UExQAtQYmTLPYoE-206" value="" style="verticalLabelPosition=bottom;verticalAlign=top;html=1;shape=mxgraph.flowchart.on-page_reference;strokeColor=none;fillColor=#000000;movable=0;resizable=0;rotatable=0;deletable=0;editable=0;locked=1;connectable=0;" parent="tnuW1UExQAtQYmTLPYoE-205" vertex="1">
          <mxGeometry width="30" height="30" as="geometry" />
        </mxCell>
        <mxCell id="tnuW1UExQAtQYmTLPYoE-207" value="" style="verticalLabelPosition=bottom;verticalAlign=top;html=1;shape=mxgraph.flowchart.on-page_reference;strokeColor=none;fillColor=#FFFFFF;movable=0;resizable=0;rotatable=0;deletable=0;editable=0;locked=1;connectable=0;" parent="tnuW1UExQAtQYmTLPYoE-205" vertex="1">
          <mxGeometry x="10" y="10" width="10" height="10" as="geometry" />
        </mxCell>
        <mxCell id="tnuW1UExQAtQYmTLPYoE-208" value="" style="triangle;whiteSpace=wrap;html=1;strokeColor=none;rounded=0;movable=0;resizable=0;rotatable=0;deletable=0;editable=0;locked=1;connectable=0;" parent="tnuW1UExQAtQYmTLPYoE-205" vertex="1">
          <mxGeometry x="22" y="10" width="6" height="10" as="geometry" />
        </mxCell>
        <mxCell id="tnuW1UExQAtQYmTLPYoE-209" value="" style="triangle;whiteSpace=wrap;html=1;rounded=0;rotation=-180;strokeColor=none;movable=0;resizable=0;rotatable=0;deletable=0;editable=0;locked=1;connectable=0;" parent="tnuW1UExQAtQYmTLPYoE-205" vertex="1">
          <mxGeometry x="2" y="10" width="6" height="10" as="geometry" />
        </mxCell>
        <mxCell id="tnuW1UExQAtQYmTLPYoE-210" value="" style="triangle;whiteSpace=wrap;html=1;rounded=0;rotation=90;strokeColor=none;movable=0;resizable=0;rotatable=0;deletable=0;editable=0;locked=1;connectable=0;" parent="tnuW1UExQAtQYmTLPYoE-205" vertex="1">
          <mxGeometry x="12" y="20" width="6" height="10" as="geometry" />
        </mxCell>
        <mxCell id="tnuW1UExQAtQYmTLPYoE-211" value="" style="triangle;whiteSpace=wrap;html=1;rounded=0;rotation=-90;strokeColor=none;movable=0;resizable=0;rotatable=0;deletable=0;editable=0;locked=1;connectable=0;" parent="tnuW1UExQAtQYmTLPYoE-205" vertex="1">
          <mxGeometry x="12" width="6" height="10" as="geometry" />
        </mxCell>
        <UserObject label="" btelligentShapeType="Sat-to-Hub" btelligentLibrary="ELM" id="tnuW1UExQAtQYmTLPYoE-212">
          <mxCell style="vsdxID=5;startArrow=none;endArrow=block;startSize=10;endSize=10;strokeColor=#4D4D4D;spacingTop=2;spacingBottom=2;spacingLeft=2;spacingRight=2;verticalAlign=middle;html=1;labelBackgroundColor=#FFFFFF;rounded=1;jumpStyle=arc;startFill=0;endFill=1;fontStyle=2;labelBorderColor=none;edgeStyle=orthogonalEdgeStyle;strokeWidth=2;" parent="1" source="tnuW1UExQAtQYmTLPYoE-195" target="tnuW1UExQAtQYmTLPYoE-203" edge="1">
            <mxGeometry relative="1" as="geometry">
              <mxPoint x="-30" y="240" as="sourcePoint" />
              <mxPoint x="10" y="240" as="targetPoint" />
              <mxPoint as="offset" />
            </mxGeometry>
          </mxCell>
        </UserObject>
        <object label="" btelligentShapeType="Hub-to-Link-1" btelligentLibrary="ELM" id="tnuW1UExQAtQYmTLPYoE-213">
          <mxCell style="endArrow=ERone;html=1;rounded=1;endSize=20;endFill=0;edgeStyle=orthogonalEdgeStyle;strokeWidth=2;strokeColor=#4D4D4D;" parent="1" source="tnuW1UExQAtQYmTLPYoE-203" target="tnuW1UExQAtQYmTLPYoE-188" edge="1">
            <mxGeometry width="50" height="50" relative="1" as="geometry">
              <mxPoint x="-270" y="140" as="sourcePoint" />
              <mxPoint x="-270" y="80" as="targetPoint" />
            </mxGeometry>
          </mxCell>
        </object>
        <object label="" btelligentShapeType="Hub-to-Link-N" btelligentLibrary="ELM" id="tnuW1UExQAtQYmTLPYoE-214">
          <mxCell style="endArrow=ERmany;html=1;rounded=1;endSize=20;endFill=0;edgeStyle=orthogonalEdgeStyle;curved=0;strokeWidth=2;strokeColor=#4D4D4D;" parent="1" source="tnuW1UExQAtQYmTLPYoE-178" target="tnuW1UExQAtQYmTLPYoE-188" edge="1">
            <mxGeometry width="50" height="50" relative="1" as="geometry">
              <mxPoint x="-350" y="160" as="sourcePoint" />
              <mxPoint x="-230" y="160" as="targetPoint" />
            </mxGeometry>
          </mxCell>
        </object>
        <object label="default" btelligentShapeType="Satellite" btelligentLibrary="ELM" id="tnuW1UExQAtQYmTLPYoE-215">
          <mxCell style="group;verticalAlign=middle;align=left;spacingLeft=39;fillColor=#fff2cc;strokeColor=none;connectable=1;" parent="1" vertex="1" connectable="0">
            <mxGeometry x="-240" y="660" width="160" height="60" as="geometry" />
          </mxCell>
        </object>
        <object label="" ELM="Satellite" id="tnuW1UExQAtQYmTLPYoE-216">
          <mxCell style="shape=delay;whiteSpace=wrap;html=1;rotation=-180;fillColor=none;strokeColor=#d6b656;backgroundOutline=0;connectable=0;noLabel=1;fillOpacity=100;strokeWidth=2;editable=0;" parent="tnuW1UExQAtQYmTLPYoE-215" vertex="1">
            <mxGeometry width="160" height="60" as="geometry" />
          </mxCell>
        </object>
        <mxCell id="tnuW1UExQAtQYmTLPYoE-217" value="" style="group;rotation=-45;movable=0;resizable=0;rotatable=0;deletable=0;editable=0;locked=1;connectable=0;" parent="tnuW1UExQAtQYmTLPYoE-215" vertex="1" connectable="0">
          <mxGeometry x="4" y="22" width="36" height="16" as="geometry" />
        </mxCell>
        <mxCell id="tnuW1UExQAtQYmTLPYoE-218" value="" style="rounded=0;whiteSpace=wrap;html=1;strokeColor=none;fillColor=#000000;rotation=-45;movable=0;resizable=0;rotatable=0;deletable=0;editable=0;locked=1;connectable=0;" parent="tnuW1UExQAtQYmTLPYoE-217" vertex="1">
          <mxGeometry x="13" y="1" width="6" height="10" as="geometry" />
        </mxCell>
        <mxCell id="tnuW1UExQAtQYmTLPYoE-219" value="" style="rounded=0;whiteSpace=wrap;html=1;strokeColor=none;fillColor=#000000;rotation=-45;movable=0;resizable=0;rotatable=0;deletable=0;editable=0;locked=1;connectable=0;" parent="tnuW1UExQAtQYmTLPYoE-217" vertex="1">
          <mxGeometry x="17" y="-5" width="14" height="6" as="geometry" />
        </mxCell>
        <mxCell id="tnuW1UExQAtQYmTLPYoE-220" value="" style="rounded=0;whiteSpace=wrap;html=1;strokeColor=none;fillColor=#000000;rotation=-45;movable=0;resizable=0;rotatable=0;deletable=0;editable=0;locked=1;connectable=0;" parent="tnuW1UExQAtQYmTLPYoE-217" vertex="1">
          <mxGeometry x="1" y="11" width="14" height="6" as="geometry" />
        </mxCell>
        <mxCell id="tnuW1UExQAtQYmTLPYoE-221" value="" style="triangle;whiteSpace=wrap;html=1;strokeColor=none;fillColor=#000000;rotation=-135;movable=0;resizable=0;rotatable=0;deletable=0;editable=0;locked=1;connectable=0;" parent="tnuW1UExQAtQYmTLPYoE-217" vertex="1">
          <mxGeometry x="16" width="6" height="18" as="geometry" />
        </mxCell>
        <mxCell id="tnuW1UExQAtQYmTLPYoE-222" value="" style="rounded=0;whiteSpace=wrap;html=1;strokeColor=none;fillColor=#000000;rotation=-45;movable=0;resizable=0;rotatable=0;deletable=0;editable=0;locked=1;connectable=0;" parent="tnuW1UExQAtQYmTLPYoE-217" vertex="1">
          <mxGeometry x="20" y="8" width="2" height="7" as="geometry" />
        </mxCell>
        <object label="Advice Line" btelligentShapeType="Hub" btelligentLibrary="ELM" id="tnuW1UExQAtQYmTLPYoE-223">
          <mxCell style="group;verticalAlign=middle;align=left;spacingLeft=39;fillColor=#dae8fc;strokeColor=#6c8ebf;connectable=1;" parent="1" vertex="1" connectable="0">
            <mxGeometry x="-240" y="560" width="160" height="60" as="geometry" />
          </mxCell>
        </object>
        <object label="" ELM="Hub" id="tnuW1UExQAtQYmTLPYoE-224">
          <mxCell style="rounded=0;whiteSpace=wrap;html=1;fillColor=none;strokeColor=#6c8ebf;strokeWidth=2;connectable=0;noLabel=1;editable=0;" parent="tnuW1UExQAtQYmTLPYoE-223" vertex="1">
            <mxGeometry width="160" height="60" as="geometry" />
          </mxCell>
        </object>
        <mxCell id="tnuW1UExQAtQYmTLPYoE-225" value="" style="group;movable=0;resizable=0;rotatable=0;deletable=0;editable=0;locked=1;connectable=0;" parent="tnuW1UExQAtQYmTLPYoE-223" vertex="1" connectable="0">
          <mxGeometry x="5" y="15" width="30" height="30" as="geometry" />
        </mxCell>
        <mxCell id="tnuW1UExQAtQYmTLPYoE-226" value="" style="verticalLabelPosition=bottom;verticalAlign=top;html=1;shape=mxgraph.flowchart.on-page_reference;strokeColor=none;fillColor=#000000;movable=0;resizable=0;rotatable=0;deletable=0;editable=0;locked=1;connectable=0;" parent="tnuW1UExQAtQYmTLPYoE-225" vertex="1">
          <mxGeometry width="30" height="30" as="geometry" />
        </mxCell>
        <mxCell id="tnuW1UExQAtQYmTLPYoE-227" value="" style="verticalLabelPosition=bottom;verticalAlign=top;html=1;shape=mxgraph.flowchart.on-page_reference;strokeColor=none;fillColor=#FFFFFF;movable=0;resizable=0;rotatable=0;deletable=0;editable=0;locked=1;connectable=0;" parent="tnuW1UExQAtQYmTLPYoE-225" vertex="1">
          <mxGeometry x="10" y="10" width="10" height="10" as="geometry" />
        </mxCell>
        <mxCell id="tnuW1UExQAtQYmTLPYoE-228" value="" style="triangle;whiteSpace=wrap;html=1;strokeColor=none;rounded=0;movable=0;resizable=0;rotatable=0;deletable=0;editable=0;locked=1;connectable=0;" parent="tnuW1UExQAtQYmTLPYoE-225" vertex="1">
          <mxGeometry x="22" y="10" width="6" height="10" as="geometry" />
        </mxCell>
        <mxCell id="tnuW1UExQAtQYmTLPYoE-229" value="" style="triangle;whiteSpace=wrap;html=1;rounded=0;rotation=-180;strokeColor=none;movable=0;resizable=0;rotatable=0;deletable=0;editable=0;locked=1;connectable=0;" parent="tnuW1UExQAtQYmTLPYoE-225" vertex="1">
          <mxGeometry x="2" y="10" width="6" height="10" as="geometry" />
        </mxCell>
        <mxCell id="tnuW1UExQAtQYmTLPYoE-230" value="" style="triangle;whiteSpace=wrap;html=1;rounded=0;rotation=90;strokeColor=none;movable=0;resizable=0;rotatable=0;deletable=0;editable=0;locked=1;connectable=0;" parent="tnuW1UExQAtQYmTLPYoE-225" vertex="1">
          <mxGeometry x="12" y="20" width="6" height="10" as="geometry" />
        </mxCell>
        <mxCell id="tnuW1UExQAtQYmTLPYoE-231" value="" style="triangle;whiteSpace=wrap;html=1;rounded=0;rotation=-90;strokeColor=none;movable=0;resizable=0;rotatable=0;deletable=0;editable=0;locked=1;connectable=0;" parent="tnuW1UExQAtQYmTLPYoE-225" vertex="1">
          <mxGeometry x="12" width="6" height="10" as="geometry" />
        </mxCell>
        <UserObject label="" btelligentShapeType="Sat-to-Hub" btelligentLibrary="ELM" id="tnuW1UExQAtQYmTLPYoE-232">
          <mxCell style="vsdxID=5;startArrow=none;endArrow=block;startSize=10;endSize=10;strokeColor=#4D4D4D;spacingTop=2;spacingBottom=2;spacingLeft=2;spacingRight=2;verticalAlign=middle;html=1;labelBackgroundColor=#FFFFFF;rounded=1;jumpStyle=arc;startFill=0;endFill=1;fontStyle=2;labelBorderColor=none;edgeStyle=orthogonalEdgeStyle;strokeWidth=2;" parent="1" source="tnuW1UExQAtQYmTLPYoE-215" target="tnuW1UExQAtQYmTLPYoE-223" edge="1">
            <mxGeometry relative="1" as="geometry">
              <mxPoint x="-30" y="520" as="sourcePoint" />
              <mxPoint x="10" y="520" as="targetPoint" />
              <mxPoint as="offset" />
            </mxGeometry>
          </mxCell>
        </UserObject>
        <object label="Link" btelligentShapeType="Link" btelligentLibrary="ELM" id="tnuW1UExQAtQYmTLPYoE-233">
          <mxCell style="group;verticalAlign=middle;align=left;spacingLeft=39;fillColor=#f8cecc;strokeColor=none;connectable=1;" parent="1" vertex="1" connectable="0">
            <mxGeometry x="-240" y="420" width="160" height="60" as="geometry" />
          </mxCell>
        </object>
        <object label="" ELM="Link" id="tnuW1UExQAtQYmTLPYoE-234">
          <mxCell style="rounded=1;whiteSpace=wrap;html=1;fillColor=none;strokeColor=#b85450;strokeWidth=2;arcSize=24;noLabel=1;connectable=0;editable=0;" parent="tnuW1UExQAtQYmTLPYoE-233" vertex="1">
            <mxGeometry width="160" height="60" as="geometry" />
          </mxCell>
        </object>
        <mxCell id="tnuW1UExQAtQYmTLPYoE-235" value="" style="group;rotation=60;movable=0;resizable=0;rotatable=0;deletable=0;editable=0;locked=1;connectable=0;" parent="tnuW1UExQAtQYmTLPYoE-233" vertex="1" connectable="0">
          <mxGeometry y="25" width="38" height="10" as="geometry" />
        </mxCell>
        <mxCell id="tnuW1UExQAtQYmTLPYoE-236" value="" style="strokeWidth=2;html=1;shape=mxgraph.flowchart.terminator;whiteSpace=wrap;rotation=60;movable=0;resizable=0;rotatable=0;deletable=0;editable=0;locked=1;connectable=0;" parent="tnuW1UExQAtQYmTLPYoE-235" vertex="1">
          <mxGeometry x="6" y="-10" width="16" height="10" as="geometry" />
        </mxCell>
        <mxCell id="tnuW1UExQAtQYmTLPYoE-237" value="" style="strokeWidth=2;html=1;shape=mxgraph.flowchart.terminator;whiteSpace=wrap;rotation=60;movable=0;resizable=0;rotatable=0;deletable=0;editable=0;locked=1;connectable=0;" parent="tnuW1UExQAtQYmTLPYoE-235" vertex="1">
          <mxGeometry x="17" y="10" width="16" height="10" as="geometry" />
        </mxCell>
        <mxCell id="tnuW1UExQAtQYmTLPYoE-238" value="" style="verticalLabelPosition=bottom;verticalAlign=top;html=1;shape=mxgraph.basic.rect;fillColor2=none;strokeWidth=1;size=20;indent=5;fillColor=#FFFFFF;strokeColor=none;rotation=60;movable=0;resizable=0;rotatable=0;deletable=0;editable=0;locked=1;connectable=0;" parent="tnuW1UExQAtQYmTLPYoE-235" vertex="1">
          <mxGeometry x="9" y="2" width="20" height="6" as="geometry" />
        </mxCell>
        <mxCell id="tnuW1UExQAtQYmTLPYoE-239" value="" style="strokeWidth=3;html=1;shape=mxgraph.flowchart.terminator;whiteSpace=wrap;rotation=60;movable=0;resizable=0;rotatable=0;deletable=0;editable=0;locked=1;connectable=0;" parent="tnuW1UExQAtQYmTLPYoE-235" vertex="1">
          <mxGeometry x="11" y="4" width="16" height="2" as="geometry" />
        </mxCell>
        <object label="" btelligentShapeType="Hub-to-Link-N" btelligentLibrary="ELM" id="tnuW1UExQAtQYmTLPYoE-240">
          <mxCell style="endArrow=ERmany;html=1;rounded=1;endSize=20;endFill=0;edgeStyle=orthogonalEdgeStyle;curved=0;strokeWidth=2;strokeColor=#4D4D4D;" parent="1" source="tnuW1UExQAtQYmTLPYoE-203" target="tnuW1UExQAtQYmTLPYoE-233" edge="1">
            <mxGeometry width="50" height="50" relative="1" as="geometry">
              <mxPoint x="-270" y="470" as="sourcePoint" />
              <mxPoint x="-270" y="530" as="targetPoint" />
            </mxGeometry>
          </mxCell>
        </object>
        <object label="" btelligentShapeType="Hub-to-Link-1" btelligentLibrary="ELM" id="tnuW1UExQAtQYmTLPYoE-241">
          <mxCell style="endArrow=ERone;html=1;rounded=1;endSize=20;endFill=0;edgeStyle=orthogonalEdgeStyle;strokeWidth=2;strokeColor=#4D4D4D;" parent="1" source="tnuW1UExQAtQYmTLPYoE-223" target="tnuW1UExQAtQYmTLPYoE-233" edge="1">
            <mxGeometry width="50" height="50" relative="1" as="geometry">
              <mxPoint x="-270" y="530" as="sourcePoint" />
              <mxPoint x="-270" y="470" as="targetPoint" />
            </mxGeometry>
          </mxCell>
        </object>
        <object label="default" btelligentShapeType="Satellite" btelligentLibrary="ELM" id="tnuW1UExQAtQYmTLPYoE-242">
          <mxCell style="group;verticalAlign=middle;align=left;spacingLeft=39;fillColor=#fff2cc;strokeColor=none;connectable=1;" parent="1" vertex="1" connectable="0">
            <mxGeometry x="240" y="660" width="160" height="60" as="geometry" />
          </mxCell>
        </object>
        <object label="" ELM="Satellite" id="tnuW1UExQAtQYmTLPYoE-243">
          <mxCell style="shape=delay;whiteSpace=wrap;html=1;rotation=-180;fillColor=none;strokeColor=#d6b656;backgroundOutline=0;connectable=0;noLabel=1;fillOpacity=100;strokeWidth=2;editable=0;" parent="tnuW1UExQAtQYmTLPYoE-242" vertex="1">
            <mxGeometry width="160" height="60" as="geometry" />
          </mxCell>
        </object>
        <mxCell id="tnuW1UExQAtQYmTLPYoE-244" value="" style="group;rotation=-45;movable=0;resizable=0;rotatable=0;deletable=0;editable=0;locked=1;connectable=0;" parent="tnuW1UExQAtQYmTLPYoE-242" vertex="1" connectable="0">
          <mxGeometry x="4" y="22" width="36" height="16" as="geometry" />
        </mxCell>
        <mxCell id="tnuW1UExQAtQYmTLPYoE-245" value="" style="rounded=0;whiteSpace=wrap;html=1;strokeColor=none;fillColor=#000000;rotation=-45;movable=0;resizable=0;rotatable=0;deletable=0;editable=0;locked=1;connectable=0;" parent="tnuW1UExQAtQYmTLPYoE-244" vertex="1">
          <mxGeometry x="13" y="1" width="6" height="10" as="geometry" />
        </mxCell>
        <mxCell id="tnuW1UExQAtQYmTLPYoE-246" value="" style="rounded=0;whiteSpace=wrap;html=1;strokeColor=none;fillColor=#000000;rotation=-45;movable=0;resizable=0;rotatable=0;deletable=0;editable=0;locked=1;connectable=0;" parent="tnuW1UExQAtQYmTLPYoE-244" vertex="1">
          <mxGeometry x="17" y="-5" width="14" height="6" as="geometry" />
        </mxCell>
        <mxCell id="tnuW1UExQAtQYmTLPYoE-247" value="" style="rounded=0;whiteSpace=wrap;html=1;strokeColor=none;fillColor=#000000;rotation=-45;movable=0;resizable=0;rotatable=0;deletable=0;editable=0;locked=1;connectable=0;" parent="tnuW1UExQAtQYmTLPYoE-244" vertex="1">
          <mxGeometry x="1" y="11" width="14" height="6" as="geometry" />
        </mxCell>
        <mxCell id="tnuW1UExQAtQYmTLPYoE-248" value="" style="triangle;whiteSpace=wrap;html=1;strokeColor=none;fillColor=#000000;rotation=-135;movable=0;resizable=0;rotatable=0;deletable=0;editable=0;locked=1;connectable=0;" parent="tnuW1UExQAtQYmTLPYoE-244" vertex="1">
          <mxGeometry x="16" width="6" height="18" as="geometry" />
        </mxCell>
        <mxCell id="tnuW1UExQAtQYmTLPYoE-249" value="" style="rounded=0;whiteSpace=wrap;html=1;strokeColor=none;fillColor=#000000;rotation=-45;movable=0;resizable=0;rotatable=0;deletable=0;editable=0;locked=1;connectable=0;" parent="tnuW1UExQAtQYmTLPYoE-244" vertex="1">
          <mxGeometry x="20" y="8" width="2" height="7" as="geometry" />
        </mxCell>
        <object label="Article" btelligentShapeType="Hub" btelligentLibrary="ELM" id="tnuW1UExQAtQYmTLPYoE-250">
          <mxCell style="group;verticalAlign=middle;align=left;spacingLeft=39;fillColor=#dae8fc;strokeColor=#6c8ebf;connectable=1;" parent="1" vertex="1" connectable="0">
            <mxGeometry x="240" y="560" width="160" height="60" as="geometry" />
          </mxCell>
        </object>
        <object label="" ELM="Hub" id="tnuW1UExQAtQYmTLPYoE-251">
          <mxCell style="rounded=0;whiteSpace=wrap;html=1;fillColor=none;strokeColor=#6c8ebf;strokeWidth=2;connectable=0;noLabel=1;editable=0;" parent="tnuW1UExQAtQYmTLPYoE-250" vertex="1">
            <mxGeometry width="160" height="60" as="geometry" />
          </mxCell>
        </object>
        <mxCell id="tnuW1UExQAtQYmTLPYoE-252" value="" style="group;movable=0;resizable=0;rotatable=0;deletable=0;editable=0;locked=1;connectable=0;" parent="tnuW1UExQAtQYmTLPYoE-250" vertex="1" connectable="0">
          <mxGeometry x="5" y="15" width="30" height="30" as="geometry" />
        </mxCell>
        <mxCell id="tnuW1UExQAtQYmTLPYoE-253" value="" style="verticalLabelPosition=bottom;verticalAlign=top;html=1;shape=mxgraph.flowchart.on-page_reference;strokeColor=none;fillColor=#000000;movable=0;resizable=0;rotatable=0;deletable=0;editable=0;locked=1;connectable=0;" parent="tnuW1UExQAtQYmTLPYoE-252" vertex="1">
          <mxGeometry width="30" height="30" as="geometry" />
        </mxCell>
        <mxCell id="tnuW1UExQAtQYmTLPYoE-254" value="" style="verticalLabelPosition=bottom;verticalAlign=top;html=1;shape=mxgraph.flowchart.on-page_reference;strokeColor=none;fillColor=#FFFFFF;movable=0;resizable=0;rotatable=0;deletable=0;editable=0;locked=1;connectable=0;" parent="tnuW1UExQAtQYmTLPYoE-252" vertex="1">
          <mxGeometry x="10" y="10" width="10" height="10" as="geometry" />
        </mxCell>
        <mxCell id="tnuW1UExQAtQYmTLPYoE-255" value="" style="triangle;whiteSpace=wrap;html=1;strokeColor=none;rounded=0;movable=0;resizable=0;rotatable=0;deletable=0;editable=0;locked=1;connectable=0;" parent="tnuW1UExQAtQYmTLPYoE-252" vertex="1">
          <mxGeometry x="22" y="10" width="6" height="10" as="geometry" />
        </mxCell>
        <mxCell id="tnuW1UExQAtQYmTLPYoE-256" value="" style="triangle;whiteSpace=wrap;html=1;rounded=0;rotation=-180;strokeColor=none;movable=0;resizable=0;rotatable=0;deletable=0;editable=0;locked=1;connectable=0;" parent="tnuW1UExQAtQYmTLPYoE-252" vertex="1">
          <mxGeometry x="2" y="10" width="6" height="10" as="geometry" />
        </mxCell>
        <mxCell id="tnuW1UExQAtQYmTLPYoE-257" value="" style="triangle;whiteSpace=wrap;html=1;rounded=0;rotation=90;strokeColor=none;movable=0;resizable=0;rotatable=0;deletable=0;editable=0;locked=1;connectable=0;" parent="tnuW1UExQAtQYmTLPYoE-252" vertex="1">
          <mxGeometry x="12" y="20" width="6" height="10" as="geometry" />
        </mxCell>
        <mxCell id="tnuW1UExQAtQYmTLPYoE-258" value="" style="triangle;whiteSpace=wrap;html=1;rounded=0;rotation=-90;strokeColor=none;movable=0;resizable=0;rotatable=0;deletable=0;editable=0;locked=1;connectable=0;" parent="tnuW1UExQAtQYmTLPYoE-252" vertex="1">
          <mxGeometry x="12" width="6" height="10" as="geometry" />
        </mxCell>
        <UserObject label="" btelligentShapeType="Sat-to-Hub" btelligentLibrary="ELM" id="tnuW1UExQAtQYmTLPYoE-259">
          <mxCell style="vsdxID=5;startArrow=none;endArrow=block;startSize=10;endSize=10;strokeColor=#4D4D4D;spacingTop=2;spacingBottom=2;spacingLeft=2;spacingRight=2;verticalAlign=middle;html=1;labelBackgroundColor=#FFFFFF;rounded=1;jumpStyle=arc;startFill=0;endFill=1;fontStyle=2;labelBorderColor=none;edgeStyle=orthogonalEdgeStyle;strokeWidth=2;" parent="1" source="tnuW1UExQAtQYmTLPYoE-242" target="tnuW1UExQAtQYmTLPYoE-250" edge="1">
            <mxGeometry relative="1" as="geometry">
              <mxPoint x="450" y="520" as="sourcePoint" />
              <mxPoint x="490" y="520" as="targetPoint" />
              <mxPoint as="offset" />
            </mxGeometry>
          </mxCell>
        </UserObject>
        <object label="Link" btelligentShapeType="Link" btelligentLibrary="ELM" id="tnuW1UExQAtQYmTLPYoE-260">
          <mxCell style="group;verticalAlign=middle;align=left;spacingLeft=39;fillColor=#f8cecc;strokeColor=none;connectable=1;" parent="1" vertex="1" connectable="0">
            <mxGeometry y="560" width="160" height="60" as="geometry" />
          </mxCell>
        </object>
        <object label="" ELM="Link" id="tnuW1UExQAtQYmTLPYoE-261">
          <mxCell style="rounded=1;whiteSpace=wrap;html=1;fillColor=none;strokeColor=#b85450;strokeWidth=2;arcSize=24;noLabel=1;connectable=0;editable=0;" parent="tnuW1UExQAtQYmTLPYoE-260" vertex="1">
            <mxGeometry width="160" height="60" as="geometry" />
          </mxCell>
        </object>
        <mxCell id="tnuW1UExQAtQYmTLPYoE-262" value="" style="group;rotation=60;movable=0;resizable=0;rotatable=0;deletable=0;editable=0;locked=1;connectable=0;" parent="tnuW1UExQAtQYmTLPYoE-260" vertex="1" connectable="0">
          <mxGeometry y="25" width="38" height="10" as="geometry" />
        </mxCell>
        <mxCell id="tnuW1UExQAtQYmTLPYoE-263" value="" style="strokeWidth=2;html=1;shape=mxgraph.flowchart.terminator;whiteSpace=wrap;rotation=60;movable=0;resizable=0;rotatable=0;deletable=0;editable=0;locked=1;connectable=0;" parent="tnuW1UExQAtQYmTLPYoE-262" vertex="1">
          <mxGeometry x="6" y="-10" width="16" height="10" as="geometry" />
        </mxCell>
        <mxCell id="tnuW1UExQAtQYmTLPYoE-264" value="" style="strokeWidth=2;html=1;shape=mxgraph.flowchart.terminator;whiteSpace=wrap;rotation=60;movable=0;resizable=0;rotatable=0;deletable=0;editable=0;locked=1;connectable=0;" parent="tnuW1UExQAtQYmTLPYoE-262" vertex="1">
          <mxGeometry x="17" y="10" width="16" height="10" as="geometry" />
        </mxCell>
        <mxCell id="tnuW1UExQAtQYmTLPYoE-265" value="" style="verticalLabelPosition=bottom;verticalAlign=top;html=1;shape=mxgraph.basic.rect;fillColor2=none;strokeWidth=1;size=20;indent=5;fillColor=#FFFFFF;strokeColor=none;rotation=60;movable=0;resizable=0;rotatable=0;deletable=0;editable=0;locked=1;connectable=0;" parent="tnuW1UExQAtQYmTLPYoE-262" vertex="1">
          <mxGeometry x="9" y="2" width="20" height="6" as="geometry" />
        </mxCell>
        <mxCell id="tnuW1UExQAtQYmTLPYoE-266" value="" style="strokeWidth=3;html=1;shape=mxgraph.flowchart.terminator;whiteSpace=wrap;rotation=60;movable=0;resizable=0;rotatable=0;deletable=0;editable=0;locked=1;connectable=0;" parent="tnuW1UExQAtQYmTLPYoE-262" vertex="1">
          <mxGeometry x="11" y="4" width="16" height="2" as="geometry" />
        </mxCell>
        <object label="" btelligentShapeType="Hub-to-Link-1" btelligentLibrary="ELM" id="tnuW1UExQAtQYmTLPYoE-267">
          <mxCell style="endArrow=ERone;html=1;rounded=1;endSize=20;endFill=0;edgeStyle=orthogonalEdgeStyle;strokeWidth=2;strokeColor=#4D4D4D;" parent="1" source="tnuW1UExQAtQYmTLPYoE-223" target="tnuW1UExQAtQYmTLPYoE-260" edge="1">
            <mxGeometry width="50" height="50" relative="1" as="geometry">
              <mxPoint x="-270" y="470" as="sourcePoint" />
              <mxPoint x="-270" y="410" as="targetPoint" />
            </mxGeometry>
          </mxCell>
        </object>
        <object label="" btelligentShapeType="Hub-to-Link-N" btelligentLibrary="ELM" id="tnuW1UExQAtQYmTLPYoE-268">
          <mxCell style="endArrow=ERmany;html=1;rounded=1;endSize=20;endFill=0;edgeStyle=orthogonalEdgeStyle;curved=0;strokeWidth=2;strokeColor=#4D4D4D;" parent="1" source="tnuW1UExQAtQYmTLPYoE-250" target="tnuW1UExQAtQYmTLPYoE-260" edge="1">
            <mxGeometry width="50" height="50" relative="1" as="geometry">
              <mxPoint x="-270" y="410" as="sourcePoint" />
              <mxPoint x="-270" y="470" as="targetPoint" />
            </mxGeometry>
          </mxCell>
        </object>
        <object label="Process Status" btelligentShapeType="Satellite" btelligentLibrary="ELM" id="tnuW1UExQAtQYmTLPYoE-269">
          <mxCell style="group;verticalAlign=middle;align=left;spacingLeft=39;fillColor=#fff2cc;strokeColor=none;connectable=1;" parent="1" vertex="1" connectable="0">
            <mxGeometry x="-480" y="280" width="160" height="60" as="geometry" />
          </mxCell>
        </object>
        <object label="" ELM="Satellite" id="tnuW1UExQAtQYmTLPYoE-270">
          <mxCell style="shape=delay;whiteSpace=wrap;html=1;rotation=-180;fillColor=none;strokeColor=#d6b656;backgroundOutline=0;connectable=0;noLabel=1;fillOpacity=100;strokeWidth=2;editable=0;" parent="tnuW1UExQAtQYmTLPYoE-269" vertex="1">
            <mxGeometry width="160" height="60" as="geometry" />
          </mxCell>
        </object>
        <mxCell id="tnuW1UExQAtQYmTLPYoE-271" value="" style="group;rotation=-45;movable=0;resizable=0;rotatable=0;deletable=0;editable=0;locked=1;connectable=0;" parent="tnuW1UExQAtQYmTLPYoE-269" vertex="1" connectable="0">
          <mxGeometry x="4" y="22" width="36" height="16" as="geometry" />
        </mxCell>
        <mxCell id="tnuW1UExQAtQYmTLPYoE-272" value="" style="rounded=0;whiteSpace=wrap;html=1;strokeColor=none;fillColor=#000000;rotation=-45;movable=0;resizable=0;rotatable=0;deletable=0;editable=0;locked=1;connectable=0;" parent="tnuW1UExQAtQYmTLPYoE-271" vertex="1">
          <mxGeometry x="13" y="1" width="6" height="10" as="geometry" />
        </mxCell>
        <mxCell id="tnuW1UExQAtQYmTLPYoE-273" value="" style="rounded=0;whiteSpace=wrap;html=1;strokeColor=none;fillColor=#000000;rotation=-45;movable=0;resizable=0;rotatable=0;deletable=0;editable=0;locked=1;connectable=0;" parent="tnuW1UExQAtQYmTLPYoE-271" vertex="1">
          <mxGeometry x="17" y="-5" width="14" height="6" as="geometry" />
        </mxCell>
        <mxCell id="tnuW1UExQAtQYmTLPYoE-274" value="" style="rounded=0;whiteSpace=wrap;html=1;strokeColor=none;fillColor=#000000;rotation=-45;movable=0;resizable=0;rotatable=0;deletable=0;editable=0;locked=1;connectable=0;" parent="tnuW1UExQAtQYmTLPYoE-271" vertex="1">
          <mxGeometry x="1" y="11" width="14" height="6" as="geometry" />
        </mxCell>
        <mxCell id="tnuW1UExQAtQYmTLPYoE-275" value="" style="triangle;whiteSpace=wrap;html=1;strokeColor=none;fillColor=#000000;rotation=-135;movable=0;resizable=0;rotatable=0;deletable=0;editable=0;locked=1;connectable=0;" parent="tnuW1UExQAtQYmTLPYoE-271" vertex="1">
          <mxGeometry x="16" width="6" height="18" as="geometry" />
        </mxCell>
        <mxCell id="tnuW1UExQAtQYmTLPYoE-276" value="" style="rounded=0;whiteSpace=wrap;html=1;strokeColor=none;fillColor=#000000;rotation=-45;movable=0;resizable=0;rotatable=0;deletable=0;editable=0;locked=1;connectable=0;" parent="tnuW1UExQAtQYmTLPYoE-271" vertex="1">
          <mxGeometry x="20" y="8" width="2" height="7" as="geometry" />
        </mxCell>
        <UserObject label="" btelligentShapeType="Sat-to-Hub" btelligentLibrary="ELM" id="tnuW1UExQAtQYmTLPYoE-277">
          <mxCell style="vsdxID=5;startArrow=none;endArrow=block;startSize=10;endSize=10;strokeColor=#4D4D4D;spacingTop=2;spacingBottom=2;spacingLeft=2;spacingRight=2;verticalAlign=middle;html=1;labelBackgroundColor=#FFFFFF;rounded=1;jumpStyle=arc;startFill=0;endFill=1;fontStyle=2;labelBorderColor=none;edgeStyle=orthogonalEdgeStyle;strokeWidth=2;" parent="1" source="tnuW1UExQAtQYmTLPYoE-269" target="tnuW1UExQAtQYmTLPYoE-203" edge="1">
            <mxGeometry relative="1" as="geometry">
              <mxPoint x="-290" y="500" as="sourcePoint" />
              <mxPoint x="-250" y="500" as="targetPoint" />
              <mxPoint as="offset" />
            </mxGeometry>
          </mxCell>
        </UserObject>
        <object label="Process Status" btelligentShapeType="Satellite" btelligentLibrary="ELM" id="tnuW1UExQAtQYmTLPYoE-278">
          <mxCell style="group;verticalAlign=middle;align=left;spacingLeft=39;fillColor=#fff2cc;strokeColor=none;connectable=1;" parent="1" vertex="1" connectable="0">
            <mxGeometry x="-480" y="560" width="160" height="60" as="geometry" />
          </mxCell>
        </object>
        <object label="" ELM="Satellite" id="tnuW1UExQAtQYmTLPYoE-279">
          <mxCell style="shape=delay;whiteSpace=wrap;html=1;rotation=-180;fillColor=none;strokeColor=#d6b656;backgroundOutline=0;connectable=0;noLabel=1;fillOpacity=100;strokeWidth=2;editable=0;" parent="tnuW1UExQAtQYmTLPYoE-278" vertex="1">
            <mxGeometry width="160" height="60" as="geometry" />
          </mxCell>
        </object>
        <mxCell id="tnuW1UExQAtQYmTLPYoE-280" value="" style="group;rotation=-45;movable=0;resizable=0;rotatable=0;deletable=0;editable=0;locked=1;connectable=0;" parent="tnuW1UExQAtQYmTLPYoE-278" vertex="1" connectable="0">
          <mxGeometry x="4" y="22" width="36" height="16" as="geometry" />
        </mxCell>
        <mxCell id="tnuW1UExQAtQYmTLPYoE-281" value="" style="rounded=0;whiteSpace=wrap;html=1;strokeColor=none;fillColor=#000000;rotation=-45;movable=0;resizable=0;rotatable=0;deletable=0;editable=0;locked=1;connectable=0;" parent="tnuW1UExQAtQYmTLPYoE-280" vertex="1">
          <mxGeometry x="13" y="1" width="6" height="10" as="geometry" />
        </mxCell>
        <mxCell id="tnuW1UExQAtQYmTLPYoE-282" value="" style="rounded=0;whiteSpace=wrap;html=1;strokeColor=none;fillColor=#000000;rotation=-45;movable=0;resizable=0;rotatable=0;deletable=0;editable=0;locked=1;connectable=0;" parent="tnuW1UExQAtQYmTLPYoE-280" vertex="1">
          <mxGeometry x="17" y="-5" width="14" height="6" as="geometry" />
        </mxCell>
        <mxCell id="tnuW1UExQAtQYmTLPYoE-283" value="" style="rounded=0;whiteSpace=wrap;html=1;strokeColor=none;fillColor=#000000;rotation=-45;movable=0;resizable=0;rotatable=0;deletable=0;editable=0;locked=1;connectable=0;" parent="tnuW1UExQAtQYmTLPYoE-280" vertex="1">
          <mxGeometry x="1" y="11" width="14" height="6" as="geometry" />
        </mxCell>
        <mxCell id="tnuW1UExQAtQYmTLPYoE-284" value="" style="triangle;whiteSpace=wrap;html=1;strokeColor=none;fillColor=#000000;rotation=-135;movable=0;resizable=0;rotatable=0;deletable=0;editable=0;locked=1;connectable=0;" parent="tnuW1UExQAtQYmTLPYoE-280" vertex="1">
          <mxGeometry x="16" width="6" height="18" as="geometry" />
        </mxCell>
        <mxCell id="tnuW1UExQAtQYmTLPYoE-285" value="" style="rounded=0;whiteSpace=wrap;html=1;strokeColor=none;fillColor=#000000;rotation=-45;movable=0;resizable=0;rotatable=0;deletable=0;editable=0;locked=1;connectable=0;" parent="tnuW1UExQAtQYmTLPYoE-280" vertex="1">
          <mxGeometry x="20" y="8" width="2" height="7" as="geometry" />
        </mxCell>
        <UserObject label="" btelligentShapeType="Sat-to-Hub" btelligentLibrary="ELM" id="tnuW1UExQAtQYmTLPYoE-286">
          <mxCell style="vsdxID=5;startArrow=none;endArrow=block;startSize=10;endSize=10;strokeColor=#4D4D4D;spacingTop=2;spacingBottom=2;spacingLeft=2;spacingRight=2;verticalAlign=middle;html=1;labelBackgroundColor=#FFFFFF;rounded=1;jumpStyle=arc;startFill=0;endFill=1;fontStyle=2;labelBorderColor=none;edgeStyle=orthogonalEdgeStyle;strokeWidth=2;" parent="1" source="tnuW1UExQAtQYmTLPYoE-278" target="tnuW1UExQAtQYmTLPYoE-223" edge="1">
            <mxGeometry relative="1" as="geometry">
              <mxPoint x="-340" y="790" as="sourcePoint" />
              <mxPoint x="-290" y="600" as="targetPoint" />
              <mxPoint as="offset" />
            </mxGeometry>
          </mxCell>
        </UserObject>
        <object label="Process Status" btelligentShapeType="Reference" btelligentLibrary="ELM" id="tnuW1UExQAtQYmTLPYoE-287">
          <mxCell style="group;verticalAlign=middle;align=left;spacingLeft=39;fillColor=#f5f5f5;fontColor=#000000;strokeColor=none;connectable=1;" parent="1" vertex="1" connectable="0">
            <mxGeometry x="-680" y="420" width="160" height="60" as="geometry" />
          </mxCell>
        </object>
        <object label="" ELM="non-historic Reference Table" id="tnuW1UExQAtQYmTLPYoE-288">
          <mxCell style="rounded=0;whiteSpace=wrap;html=1;fillColor=none;fontColor=#333333;strokeColor=#999999;strokeWidth=2;connectable=0;noLabel=1;editable=0;" parent="tnuW1UExQAtQYmTLPYoE-287" vertex="1">
            <mxGeometry width="160" height="60" as="geometry" />
          </mxCell>
        </object>
        <mxCell id="tnuW1UExQAtQYmTLPYoE-289" value="" style="group;movable=0;resizable=0;rotatable=0;deletable=0;editable=0;locked=1;connectable=0;" parent="tnuW1UExQAtQYmTLPYoE-287" vertex="1" connectable="0">
          <mxGeometry x="7" y="15" width="24" height="30" as="geometry" />
        </mxCell>
        <mxCell id="tnuW1UExQAtQYmTLPYoE-290" value="" style="rounded=0;whiteSpace=wrap;html=1;" parent="tnuW1UExQAtQYmTLPYoE-289" vertex="1">
          <mxGeometry x="8" width="8" height="10" as="geometry" />
        </mxCell>
        <mxCell id="tnuW1UExQAtQYmTLPYoE-291" value="" style="rounded=0;whiteSpace=wrap;html=1;" parent="tnuW1UExQAtQYmTLPYoE-289" vertex="1">
          <mxGeometry x="16" width="8" height="10" as="geometry" />
        </mxCell>
        <mxCell id="tnuW1UExQAtQYmTLPYoE-292" value="" style="rounded=0;whiteSpace=wrap;html=1;" parent="tnuW1UExQAtQYmTLPYoE-289" vertex="1">
          <mxGeometry x="8" y="10" width="8" height="10" as="geometry" />
        </mxCell>
        <mxCell id="tnuW1UExQAtQYmTLPYoE-293" value="" style="rounded=0;whiteSpace=wrap;html=1;" parent="tnuW1UExQAtQYmTLPYoE-289" vertex="1">
          <mxGeometry x="16" y="10" width="8" height="10" as="geometry" />
        </mxCell>
        <mxCell id="tnuW1UExQAtQYmTLPYoE-294" value="" style="rounded=0;whiteSpace=wrap;html=1;" parent="tnuW1UExQAtQYmTLPYoE-289" vertex="1">
          <mxGeometry x="8" y="20" width="8" height="10" as="geometry" />
        </mxCell>
        <mxCell id="tnuW1UExQAtQYmTLPYoE-295" value="" style="rounded=0;whiteSpace=wrap;html=1;" parent="tnuW1UExQAtQYmTLPYoE-289" vertex="1">
          <mxGeometry x="16" y="20" width="8" height="10" as="geometry" />
        </mxCell>
        <mxCell id="tnuW1UExQAtQYmTLPYoE-296" value="" style="rounded=0;whiteSpace=wrap;html=1;fillColor=#999999;" parent="tnuW1UExQAtQYmTLPYoE-289" vertex="1">
          <mxGeometry width="8" height="10" as="geometry" />
        </mxCell>
        <mxCell id="tnuW1UExQAtQYmTLPYoE-297" value="" style="rounded=0;whiteSpace=wrap;html=1;fillColor=#999999;" parent="tnuW1UExQAtQYmTLPYoE-289" vertex="1">
          <mxGeometry y="10" width="8" height="10" as="geometry" />
        </mxCell>
        <mxCell id="tnuW1UExQAtQYmTLPYoE-298" value="" style="rounded=0;whiteSpace=wrap;html=1;fillColor=#999999;" parent="tnuW1UExQAtQYmTLPYoE-289" vertex="1">
          <mxGeometry y="20" width="8" height="10" as="geometry" />
        </mxCell>
        <UserObject label="" btelligentShapeType="Sat-to-Hub" btelligentLibrary="ELM" id="tnuW1UExQAtQYmTLPYoE-299">
          <mxCell style="vsdxID=5;startArrow=none;endArrow=block;startSize=10;endSize=10;strokeColor=#4D4D4D;spacingTop=2;spacingBottom=2;spacingLeft=2;spacingRight=2;verticalAlign=middle;html=1;labelBackgroundColor=#FFFFFF;rounded=1;jumpStyle=arc;startFill=0;endFill=1;fontStyle=2;labelBorderColor=none;edgeStyle=orthogonalEdgeStyle;strokeWidth=2;" parent="1" source="tnuW1UExQAtQYmTLPYoE-287" target="tnuW1UExQAtQYmTLPYoE-269" edge="1">
            <mxGeometry relative="1" as="geometry">
              <mxPoint x="-290" y="500" as="sourcePoint" />
              <mxPoint x="-250" y="500" as="targetPoint" />
              <mxPoint as="offset" />
              <Array as="points">
                <mxPoint x="-600" y="310" />
              </Array>
            </mxGeometry>
          </mxCell>
        </UserObject>
        <UserObject label="" btelligentShapeType="Sat-to-Hub" btelligentLibrary="ELM" id="tnuW1UExQAtQYmTLPYoE-300">
          <mxCell style="vsdxID=5;startArrow=none;endArrow=block;startSize=10;endSize=10;strokeColor=#4D4D4D;spacingTop=2;spacingBottom=2;spacingLeft=2;spacingRight=2;verticalAlign=middle;html=1;labelBackgroundColor=#FFFFFF;rounded=1;jumpStyle=arc;startFill=0;endFill=1;fontStyle=2;labelBorderColor=none;edgeStyle=orthogonalEdgeStyle;strokeWidth=2;" parent="1" source="tnuW1UExQAtQYmTLPYoE-287" target="tnuW1UExQAtQYmTLPYoE-278" edge="1">
            <mxGeometry relative="1" as="geometry">
              <mxPoint x="-590" y="450" as="sourcePoint" />
              <mxPoint x="-470" y="320" as="targetPoint" />
              <mxPoint as="offset" />
              <Array as="points">
                <mxPoint x="-590" y="590" />
              </Array>
            </mxGeometry>
          </mxCell>
        </UserObject>
        <object label="" btelligentShapeType="Hub-to-Link-N" btelligentLibrary="ELM" id="tnuW1UExQAtQYmTLPYoE-301">
          <mxCell style="endArrow=ERmany;html=1;rounded=1;endSize=20;endFill=0;edgeStyle=orthogonalEdgeStyle;curved=0;strokeWidth=2;strokeColor=#4D4D4D;" parent="1" source="tnuW1UExQAtQYmTLPYoE-160" target="tnuW1UExQAtQYmTLPYoE-188" edge="1">
            <mxGeometry width="50" height="50" relative="1" as="geometry">
              <mxPoint x="-270" y="470" as="sourcePoint" />
              <mxPoint x="-270" y="530" as="targetPoint" />
            </mxGeometry>
          </mxCell>
        </object>
        <object label="Hier gibt es noch eine Menge Kommentare!" btelligentLibrary="ELM" btelligentShapeType="Comment" id="tnuW1UExQAtQYmTLPYoE-302">
          <mxCell style="shape=note;whiteSpace=wrap;html=1;backgroundOutline=1;darkOpacity=0.05;size=10;fillColor=#f9f7ed;strokeColor=#D5D6AB;fontSize=10;verticalAlign=top;align=left;spacingLeft=3;spacingRight=3;fontStyle=2" parent="1" vertex="1">
            <mxGeometry x="-680" y="800" width="120" height="80" as="geometry" />
          </mxCell>
        </object>
      </root>
    </mxGraphModel>
  </diagram>
</mxfile>
